<svg xmlns="http://www.w3.org/2000/svg" viewBox="0 0 512 512" width="512" height="512">
	<style>
		tspan { white-space:pre }
		.shp0 { fill: #233143 } 
		.shp1 { fill: #192330 } 
		.shp2 { fill: #2a3b51 } 
		.shp3 { fill: #3e5879 } 
		.shp4 { fill: #374e6c } 
		.shp5 { fill: #afc0d5 } 
		.shp6 { fill: #87a0c0 } 
	</style>
	<g id="Layer">
		<g id="Layer">
			<g id="Layer">
				<path id="Layer" class="shp0" d="M256 512C187.76 512 123.56 486.65 75.24 440.61C55.93 422.21 40.07 401.39 27.97 378.86L54.97 305.21L123.26 252.39L179.39 252.39L407.54 83.99C413.14 79.86 420.86 80.12 426.17 84.64C480.71 131.04 512 197.65 512 267.39C512 332.87 485.28 394.38 436.76 440.61C388.44 486.65 324.24 512 256 512Z" />
				<path id="Layer" class="shp1" d="M426.17 84.64C420.86 80.12 413.14 79.86 407.54 83.99L256 195.84L256 512C324.24 512 388.44 486.65 436.76 440.61C485.28 394.38 512 332.87 512 267.39C512 197.65 480.71 131.04 426.17 84.63L426.17 84.64Z" />
			</g>
			<path id="Layer" class="shp2" d="M15 252.39C6.72 252.39 0 259.11 0 267.39C0 306.81 9.7 344.78 27.99 378.85C71.29 358.58 121.17 294.82 123.26 252.39L15 252.39Z" />
		</g>
		<g id="Layer">
			<g id="Layer">
				<g id="Layer">
					<path id="Layer" class="shp3" d="M256.01 342.76C252.5 342.76 248.98 341.53 246.16 339.08L131.76 239.5C99.22 211.17 80.56 170.78 80.56 128.67L80.56 15C80.56 9.36 83.72 4.19 88.75 1.63C93.79 -0.93 99.83 -0.45 104.39 2.88L171.1 51.48C198.32 42.34 226.84 37.71 256 37.71C284.74 37.71 312.87 42.21 339.73 51.09L407.76 2.77C412.33 -0.48 418.34 -0.9 423.32 1.67C428.31 4.24 431.44 9.39 431.44 15L431.44 128.68C431.44 170.78 412.78 211.17 380.25 239.49L265.86 339.07C263.03 341.53 259.52 342.76 256.01 342.76L256.01 342.76Z" />
					<path id="Layer" class="shp4" d="M423.33 1.67C418.34 -0.9 412.33 -0.48 407.76 2.77L339.73 51.09C312.87 42.21 284.74 37.71 256 37.71L256 342.76L256.01 342.76C259.52 342.76 263.04 341.53 265.86 339.07L380.25 239.49C412.79 211.17 431.44 170.78 431.44 128.68L431.44 15C431.44 9.39 428.31 4.25 423.33 1.67L423.33 1.67Z" />
				</g>
				<g id="Layer">
					<path id="Layer" class="shp5" d="M271 309.62C271 301.34 264.28 294.62 256 294.62C247.72 294.62 241 301.34 241 309.62L241 334.58L246.16 339.07C248.98 341.53 252.5 342.76 256.01 342.76C259.52 342.76 263.04 341.53 265.86 339.07L271 334.6L271 309.62Z" />
					<path id="Layer" class="shp6" d="M256 294.62L256 342.76L256.01 342.76C259.52 342.76 263.04 341.53 265.86 339.07L271 334.6L271 309.62C271 301.34 264.28 294.62 256 294.62L256 294.62Z" />
				</g>
			</g>
			<g id="Layer">
				<path id="Layer" class="shp6" d="M311 199.71C304.71 199.71 299.02 195.66 296.88 189.76C294.76 183.89 296.65 177.06 301.49 173.11C306.35 169.14 313.32 168.65 318.71 171.85C324.08 175.05 326.94 181.51 325.71 187.64C324.32 194.57 318.07 199.71 311 199.71Z" />
				<path id="Layer" class="shp5" d="M201 199.71C194.72 199.71 189.02 195.66 186.88 189.76C184.76 183.89 186.65 177.06 191.49 173.11C196.36 169.13 203.31 168.66 208.71 171.85C214.09 175.03 216.94 181.53 215.71 187.64C214.32 194.57 208.07 199.71 201 199.71L201 199.71Z" />
			</g>
		</g>
	</g>
</svg>