<svg
	xmlns='http://www.w3.org/2000/svg' viewBox="0 0 20 20"
>
	<path fill="none"
		stroke-opacity="context-fill-opacity" stroke="context-fill" stroke-linecap="round" d="M17.534,10.458l-3.587-6.917c-0.088-0.168-0.262-0.275-0.452-0.275H6.571c-0.189,0-0.363,0.107-0.452,0.275L2.775,9.989c-0.081,0.134-0.159,0.261-0.211,0.409l-0.031,0.06c-0.027,0.05-0.006,0.104-0.014,0.157c-0.044,0.178-0.109,0.348-0.109,0.537v3.293c0,1.262,1.028,2.289,2.29,2.289h10.603c1.262,0,2.288-1.027,2.288-2.289v-3.293c0-0.097-0.043-0.178-0.055-0.271C17.594,10.747,17.607,10.597,17.534,10.458z M6.88,4.284h6.306l2.405,4.639c-0.1-0.013-0.188-0.059-0.289-0.059h-2.354c-0.27,0-0.491,0.208-0.508,0.477c-0.082,1.292-1.154,2.305-2.441,2.305c-1.287,0-2.359-1.013-2.44-2.305C7.542,9.073,7.32,8.865,7.052,8.865H4.7c-0.077,0-0.142,0.037-0.217,0.043L6.88,4.284zM16.573,14.445c0,0.7-0.57,1.271-1.271,1.271H4.7c-0.701,0-1.271-0.571-1.271-1.271v-3.293c0-0.122,0.038-0.231,0.07-0.343l0.235-0.455C3.966,10.073,4.306,9.882,4.7,9.882h1.907c0.324,1.595,1.732,2.782,3.394,2.782c1.66,0,3.07-1.188,3.394-2.782h1.909c0.7,0,1.271,0.57,1.271,1.271V14.445z" />
</svg>
